# xmcd
#
# Track frame offsets: 
#        150
#        25333
#        47274
#        72158
#        96374
#        120267
#        141071
#        165918
#
# Disc length: 2646 seconds
#
# Revision: 3
# Processed by: cddbd v1.5.2PL0 Copyright (c) Steve Scherf et al.
# Submitted via: ExactAudioCopy v1.0b3
#
DISCID=5a0a5408
DTITLE=TM NETWORK - THE SINGLES 2
DYEAR=2009
DGENRE=JPop
TTITLE0=JUST ONE VICTORY (LONG No Breakdown)
TTITLE1=TIME (PASSES SO SLOWLY)
TTITLE2=FOOL ON THE PLANET (WHERE ARE YOU NOW)
TTITLE3=We love the EARTH (Single version)
TTITLE4=Dreams of Christmas ('91 NY Mix)
TTITLE5=一途な恋 (ANOTHER MATERIAL)
TTITLE6=DIVE INTO YOUR BODY (DUB INSTRUMENTAL MIX)
TTITLE7=Crazy For You (Instrumental)
EXTD=YEAR: 2009
EXTT0=
EXTT1=
EXTT2=
EXTT3=
EXTT4=
EXTT5=
EXTT6=
EXTT7=
PLAYORDER=
